<?xml version="1.0" encoding="UTF-8"?><svg id="_レイヤー_2" xmlns="http://www.w3.org/2000/svg" viewBox="0 0 474.13 87.29"><defs><style>.cls-1{fill:#fff;}</style></defs><g id="_レイヤー_1-2"><path class="cls-1" d="M474.13,2.25v82.96h-22.79v-37.39c0-3.74-.37-7.22-1.12-10.43-.75-3.21-2.01-6.02-3.77-8.42s-4.09-4.3-6.98-5.7c-2.89-1.39-6.42-2.09-10.59-2.09-1.39,0-2.83.08-4.33.24-1.5.16-2.78.35-3.85.56V.8c1.82-.53,3.48-.8,4.97-.8,2.89,0,5.67.43,8.34,1.28,2.67.86,5.19,2.06,7.54,3.61,2.35,1.55,4.44,3.42,6.26,5.62,1.82,2.19,3.26,4.57,4.33,7.14h.32V2.25h21.66Z"/><path class="cls-1" d="M333.9,85.2V2.25h22.79v43.48c0,8.45,1.39,14.52,4.17,18.21,2.78,3.69,7.28,5.54,13.48,5.54,5.46,0,9.25-1.68,11.39-5.05,2.14-3.37,3.21-8.48,3.21-15.32V2.25h22.79v51.02c0,5.13-.45,9.82-1.36,14.04-.91,4.23-2.49,7.81-4.73,10.75-2.25,2.94-5.32,5.21-9.23,6.82-3.9,1.6-8.91,2.41-15,2.41-4.81,0-9.52-1.07-14.12-3.21-4.6-2.14-8.34-5.62-11.23-10.43h-.48v11.55h-21.66Z"/><path class="cls-1" d="M319.78,2.25v82.96h-22.79v-43.48c0-8.45-1.39-14.52-4.17-18.21-2.78-3.69-7.27-5.54-13.48-5.54-5.46,0-9.25,1.68-11.39,5.05-2.14,3.37-3.21,8.48-3.21,15.32v46.85h-22.79v-51.02c0-5.13.46-9.81,1.36-14.04.91-4.22,2.49-7.81,4.73-10.75,2.25-2.94,5.32-5.24,9.23-6.9,3.91-1.66,8.91-2.49,15-2.49,4.81,0,9.52,1.1,14.12,3.29,4.6,2.19,8.34,5.7,11.23,10.51h.48V2.25h21.66Z"/><path class="cls-1" d="M231.05,2.25v82.96h-22.79v-43.48c0-8.45-1.39-14.52-4.17-18.21-2.78-3.69-7.27-5.54-13.48-5.54-5.46,0-9.25,1.68-11.39,5.05-2.14,3.37-3.21,8.48-3.21,15.32v46.85h-22.79v-51.02c0-5.13.46-9.81,1.36-14.04.91-4.22,2.49-7.81,4.73-10.75,2.25-2.94,5.32-5.24,9.23-6.9,3.91-1.66,8.91-2.49,15-2.49,4.81,0,9.52,1.1,14.12,3.29,4.6,2.19,8.34,5.7,11.23,10.51h.48V2.25h21.66Z"/><path class="cls-1" d="M123.55,49.26h-59.85c-.43-6.42.11-12.57,1.6-18.45,1.5-5.88,3.93-11.12,7.3-15.72,3.37-4.6,7.68-8.26,12.92-10.99,5.24-2.73,11.39-4.09,18.45-4.09,6.31,0,12.06,1.12,17.25,3.37,5.19,2.25,9.66,5.32,13.4,9.23,3.75,3.91,6.63,8.53,8.66,13.88,2.03,5.35,3.05,11.13,3.05,17.33s-.99,12.3-2.97,17.65c-1.98,5.35-4.79,9.95-8.42,13.8-3.63,3.85-8.08,6.82-13.32,8.91-5.24,2.09-11.12,3.13-17.65,3.13-9.41,0-17.43-2.14-24.07-6.42-6.63-4.28-11.55-11.39-14.76-21.34h20.06c.75,2.57,2.78,5,6.1,7.3,3.32,2.3,7.28,3.45,11.87,3.45,6.42,0,11.34-1.66,14.76-4.97,3.42-3.31,5.29-8.66,5.62-16.04ZM86.48,34.82h37.07c-.11-1.6-.45-3.42-1.04-5.46-.59-2.03-1.6-3.96-3.05-5.78-1.44-1.82-3.37-3.34-5.78-4.57-2.41-1.23-5.43-1.84-9.07-1.84-5.56,0-9.71,1.5-12.44,4.49-2.73,3-4.62,7.38-5.7,13.16Z"/><path class="cls-1" d="M53.43,2.25v82.96h-22.79v-37.39c0-3.74-.37-7.22-1.12-10.43-.75-3.21-2.01-6.02-3.77-8.42s-4.09-4.3-6.98-5.7c-2.89-1.39-6.42-2.09-10.59-2.09-1.39,0-2.83.08-4.33.24-1.5.16-2.78.35-3.85.56V.8C1.82.27,3.48,0,4.97,0c2.89,0,5.67.43,8.34,1.28,2.67.86,5.19,2.06,7.54,3.61,2.35,1.55,4.44,3.42,6.26,5.62,1.82,2.19,3.26,4.57,4.33,7.14h.32V2.25h21.66Z"/></g></svg>